<?xml version="1.0" encoding="UTF-8" standalone="no"?>
<!-- Created with Inkscape (http://www.inkscape.org/) -->

<svg
   xmlns:dc="http://purl.org/dc/elements/1.1/"
   xmlns:cc="http://creativecommons.org/ns#"
   xmlns:rdf="http://www.w3.org/1999/02/22-rdf-syntax-ns#"
   xmlns:svg="http://www.w3.org/2000/svg"
   xmlns="http://www.w3.org/2000/svg"
   xmlns:xlink="http://www.w3.org/1999/xlink"
   xmlns:sodipodi="http://sodipodi.sourceforge.net/DTD/sodipodi-0.dtd"
   xmlns:inkscape="http://www.inkscape.org/namespaces/inkscape"
   width="96"
   height="96"
   id="svg6517"
   version="1.1"
   inkscape:version="0.48.4 r9939"
   sodipodi:docname="icon.svg">
  <defs
     id="defs6519">
    <linearGradient
       inkscape:collect="always"
       xlink:href="#Background"
       id="linearGradient6461"
       gradientUnits="userSpaceOnUse"
       x1="0"
       y1="970.29498"
       x2="144"
       y2="970.29498"
       gradientTransform="matrix(0,-0.66666669,0.6660448,0,-866.25992,731.29077)" />
    <linearGradient
       id="Background">
      <stop
         id="stop4178"
         offset="0"
         style="stop-color:#574c4a;stop-opacity:1" />
      <stop
         id="stop4180"
         offset="1"
         style="stop-color:#80716d;stop-opacity:1" />
    </linearGradient>
    <filter
       style="color-interpolation-filters:sRGB;"
       inkscape:label="Inner Shadow"
       id="filter1121">
      <feFlood
         flood-opacity="0.59999999999999998"
         flood-color="rgb(0,0,0)"
         result="flood"
         id="feFlood1123" />
      <feComposite
         in="flood"
         in2="SourceGraphic"
         operator="out"
         result="composite1"
         id="feComposite1125" />
      <feGaussianBlur
         in="composite1"
         stdDeviation="1"
         result="blur"
         id="feGaussianBlur1127" />
      <feOffset
         dx="0"
         dy="2"
         result="offset"
         id="feOffset1129" />
      <feComposite
         in="offset"
         in2="SourceGraphic"
         operator="atop"
         result="composite2"
         id="feComposite1131" />
    </filter>
    <filter
       style="color-interpolation-filters:sRGB;"
       inkscape:label="Drop Shadow"
       id="filter950">
      <feFlood
         flood-opacity="0.25"
         flood-color="rgb(0,0,0)"
         result="flood"
         id="feFlood952" />
      <feComposite
         in="flood"
         in2="SourceGraphic"
         operator="in"
         result="composite1"
         id="feComposite954" />
      <feGaussianBlur
         in="composite1"
         stdDeviation="1"
         result="blur"
         id="feGaussianBlur956" />
      <feOffset
         dx="0"
         dy="1"
         result="offset"
         id="feOffset958" />
      <feComposite
         in="SourceGraphic"
         in2="offset"
         operator="over"
         result="composite2"
         id="feComposite960" />
    </filter>
    <clipPath
       clipPathUnits="userSpaceOnUse"
       id="clipPath873">
      <g
         transform="matrix(0,-0.66666667,0.66604479,0,-258.25992,677.00001)"
         id="g875"
         inkscape:label="Layer 1"
         style="fill:#ff00ff;fill-opacity:1;stroke:none;display:inline">
        <path
           style="fill:#ff00ff;fill-opacity:1;stroke:none;display:inline"
           d="m 46.702703,898.22775 50.594594,0 C 138.16216,898.22775 144,904.06497 144,944.92583 l 0,50.73846 c 0,40.86071 -5.83784,46.69791 -46.702703,46.69791 l -50.594594,0 C 5.8378378,1042.3622 0,1036.525 0,995.66429 L 0,944.92583 C 0,904.06497 5.8378378,898.22775 46.702703,898.22775 Z"
           id="path877"
           inkscape:connector-curvature="0"
           sodipodi:nodetypes="sssssssss" />
      </g>
    </clipPath>
    <filter
       inkscape:collect="always"
       id="filter891"
       inkscape:label="Badge Shadow">
      <feGaussianBlur
         inkscape:collect="always"
         stdDeviation="0.71999962"
         id="feGaussianBlur893" />
    </filter>
    <clipPath
       clipPathUnits="userSpaceOnUse"
       id="clipPath874">
      <path
         sodipodi:nodetypes="cccssczcssccccscc"
         inkscape:connector-curvature="0"
         id="path876"
         d="m -414.0975,764.53909 c -7.8125,17.9106 -1.95313,49.75167 -1.95313,49.75167 l 12.69531,0 c 0,-2.9851 -0.83592,-4.55148 -1.19017,-6.62319 -3.77705,-22.08828 -2.54859,-29.19801 -0.76295,-29.19801 1.95312,0 10.74219,24.87583 10.74219,24.87583 0,0 1.95313,-0.49751 3.90625,-0.49751 1.95312,0 3.90625,0.49751 3.90625,0.49751 0,0 8.78906,-24.87583 10.74218,-24.87583 1.78565,0 3.01411,7.10973 -0.76293,29.19801 -0.35426,2.07171 -1.19019,3.63809 -1.19019,6.62319 l 12.69532,0 c 0,0 5.85937,-31.84107 -1.95314,-49.75167 l -11.71874,0 c -3.3378,-0.20005 -10.74219,14.9255 -11.71875,14.9255 C -391.63657,779.46459 -399.04095,764.33904 -402.37875,764.53909 Z"
         style="opacity:0.47400004;color:#000000;fill:#ff00ff;fill-opacity:1;fill-rule:nonzero;stroke:none;stroke-width:0.5;marker:none;visibility:visible;display:inline;overflow:visible;enable-background:accumulate" />
    </clipPath>
    <clipPath
       clipPathUnits="userSpaceOnUse"
       id="clipPath896">
      <path
         sodipodi:nodetypes="cccssczcssccccscc"
         inkscape:connector-curvature="0"
         id="path898"
         d="m -414.0975,764.53909 c -7.8125,17.9106 -1.95313,49.75167 -1.95313,49.75167 l 12.69531,0 c 0,-2.9851 -0.83592,-4.55148 -1.19017,-6.62319 -3.77705,-22.08828 -2.54859,-29.19801 -0.76295,-29.19801 1.95312,0 10.74219,24.87583 10.74219,24.87583 0,0 1.95313,-0.49751 3.90625,-0.49751 1.95312,0 3.90625,0.49751 3.90625,0.49751 0,0 8.78906,-24.87583 10.74218,-24.87583 1.78565,0 3.01411,7.10973 -0.76293,29.19801 -0.35426,2.07171 -1.19019,3.63809 -1.19019,6.62319 l 12.69532,0 c 0,0 5.85937,-31.84107 -1.95314,-49.75167 l -11.71874,0 c -3.3378,-0.20005 -10.74219,14.9255 -11.71875,14.9255 C -391.63657,779.46459 -399.04095,764.33904 -402.37875,764.53909 Z"
         style="color:#000000;fill:#ff00ff;fill-opacity:1;fill-rule:nonzero;stroke:none;stroke-width:0.5;marker:none;visibility:visible;display:inline;overflow:visible;enable-background:accumulate" />
    </clipPath>
    <linearGradient
       id="linearGradient3354-9">
      <stop
         id="stop3356-9"
         offset="0"
         style="stop-color:#959595;stop-opacity:1;" />
      <stop
         id="stop3358-9"
         offset="1"
         style="stop-color:#cccccc;stop-opacity:1;" />
    </linearGradient>
    <linearGradient
       y2="-32.881535"
       x2="-560.61346"
       y1="-40.681377"
       x1="-403.07309"
       gradientUnits="userSpaceOnUse"
       id="linearGradient4343"
       xlink:href="#linearGradient3354-9"
       inkscape:collect="always" />
    <inkscape:perspective
       sodipodi:type="inkscape:persp3d"
       inkscape:vp_x="0 : 0.5 : 1"
       inkscape:vp_y="0 : 1000 : 0"
       inkscape:vp_z="1 : 0.5 : 1"
       inkscape:persp3d-origin="0.5 : 0.33333333 : 1"
       id="perspective4393" />
    <inkscape:perspective
       id="perspective4383"
       inkscape:persp3d-origin="372.04724 : 350.78739 : 1"
       inkscape:vp_z="744.09448 : 526.18109 : 1"
       inkscape:vp_y="0 : 1000 : 0"
       inkscape:vp_x="0 : 526.18109 : 1"
       sodipodi:type="inkscape:persp3d" />
    <linearGradient
       inkscape:collect="always"
       xlink:href="#linearGradient3354-9"
       id="linearGradient3164"
       gradientUnits="userSpaceOnUse"
       x1="-403.07309"
       y1="-40.681377"
       x2="-560.61346"
       y2="-32.881535" />
  </defs>
  <sodipodi:namedview
     id="base"
     pagecolor="#ffffff"
     bordercolor="#666666"
     borderopacity="1.0"
     inkscape:pageopacity="0.0"
     inkscape:pageshadow="2"
     inkscape:zoom="2.6077032"
     inkscape:cx="-17.529322"
     inkscape:cy="74.347537"
     inkscape:document-units="px"
     inkscape:current-layer="layer1"
     showgrid="false"
     fit-margin-top="0"
     fit-margin-left="0"
     fit-margin-right="0"
     fit-margin-bottom="0"
     inkscape:window-width="1920"
     inkscape:window-height="1056"
     inkscape:window-x="0"
     inkscape:window-y="24"
     inkscape:window-maximized="1"
     showborder="true"
     showguides="false"
     inkscape:guide-bbox="true"
     inkscape:showpageshadow="false"
     inkscape:snap-global="false"
     inkscape:snap-bbox="true"
     inkscape:bbox-paths="true"
     inkscape:bbox-nodes="true"
     inkscape:snap-bbox-edge-midpoints="true"
     inkscape:snap-bbox-midpoints="true"
     inkscape:snap-intersection-paths="true"
     inkscape:object-paths="true"
     inkscape:object-nodes="true"
     inkscape:snap-smooth-nodes="true"
     inkscape:snap-midpoints="true"
     inkscape:snap-object-midpoints="false"
     inkscape:snap-center="false"
     inkscape:snap-grids="false"
     inkscape:snap-to-guides="false">
    <inkscape:grid
       type="xygrid"
       id="grid821" />
    <sodipodi:guide
       orientation="1,0"
       position="16,48"
       id="guide823" />
    <sodipodi:guide
       orientation="0,1"
       position="64,80"
       id="guide825" />
    <sodipodi:guide
       orientation="1,0"
       position="80,40"
       id="guide827" />
    <sodipodi:guide
       orientation="0,1"
       position="64,16"
       id="guide829" />
  </sodipodi:namedview>
  <metadata
     id="metadata6522">
    <rdf:RDF>
      <cc:Work
         rdf:about="">
        <dc:format>image/svg+xml</dc:format>
        <dc:type
           rdf:resource="http://purl.org/dc/dcmitype/StillImage" />
        <dc:title></dc:title>
      </cc:Work>
    </rdf:RDF>
  </metadata>
  <g
     inkscape:label="BACKGROUND"
     inkscape:groupmode="layer"
     id="layer1"
     transform="translate(268,-635.29076)"
     style="display:inline">
    <path
       style="fill:url(#linearGradient6461);fill-opacity:1;stroke:none;display:inline;filter:url(#filter1121)"
       d="m -268,700.15563 0,-33.72973 c 0,-27.24324 3.88785,-31.13513 31.10302,-31.13513 l 33.79408,0 c 27.21507,0 31.1029,3.89189 31.1029,31.13513 l 0,33.72973 c 0,27.24325 -3.88783,31.13514 -31.1029,31.13514 l -33.79408,0 C -264.11215,731.29077 -268,727.39888 -268,700.15563 Z"
       id="path6455"
       inkscape:connector-curvature="0"
       sodipodi:nodetypes="sssssssss" />
    <g
       style="display:inline;overflow:visible"
       id="g5"
       transform="matrix(0.19173482,0,0,0.19173482,-268.64964,662.16724)">
      <g
         id="g7">
        <path
           d="m 86.945,33.919 h 23.872 v 110.496 c -12.246,2.325 -21.237,3.255 -31.002,3.255 -29.142,0 -44.333,-13.174 -44.333,-38.443 0,-24.336 16.122,-40.147 41.078,-40.147 3.875,0 6.82,0.311 10.386,1.239 v -36.4 z m 0,55.62 C 84.155,88.61 81.83,88.3 78.885,88.3 c -12.091,0 -19.067,7.441 -19.067,20.46 0,12.713 6.666,19.688 18.912,19.688 2.634,0 4.805,-0.155 8.215,-0.618 V 89.539 z"
           id="path9"
           inkscape:connector-curvature="0"
           style="fill:#ffffff" />
        <path
           d="m 148.793,70.783 v 55.341 c 0,19.065 -1.395,28.21 -5.58,36.117 -3.876,7.596 -8.992,12.399 -19.532,17.67 L 101.514,169.37 c 10.541,-4.96 15.656,-9.297 18.911,-15.966 3.411,-6.819 4.497,-14.727 4.497,-35.498 V 70.783 h 23.871 z M 124.922,34.046 h 23.871 V 58.539 H 124.922 V 34.046 z"
           id="path11"
           inkscape:connector-curvature="0"
           style="fill:#ffffff" />
        <path
           d="m 163.212,76.209 c 10.542,-4.961 20.617,-7.13 31.623,-7.13 12.246,0 20.306,3.255 23.872,9.611 2.014,3.564 2.634,8.214 2.634,18.137 v 48.517 c -10.697,1.552 -24.182,2.636 -34.102,2.636 -19.996,0 -28.988,-6.977 -28.988,-22.476 0,-16.744 11.936,-24.493 41.234,-26.975 v -5.271 c 0,-4.339 -2.17,-5.888 -8.216,-5.888 -8.835,0 -18.756,2.479 -28.058,7.285 V 76.209 z m 37.358,37.978 c -15.812,1.552 -20.927,4.031 -20.927,10.231 0,4.65 2.946,6.821 9.456,6.821 3.566,0 6.82,-0.311 11.471,-1.084 v -15.968 z"
           id="path13"
           inkscape:connector-curvature="0"
           style="fill:#ffffff" />
        <path
           d="m 232.968,74.505 c 14.105,-3.722 25.731,-5.426 37.512,-5.426 12.246,0 21.082,2.788 26.354,8.216 4.96,5.113 6.509,10.693 6.509,22.632 v 46.813 h -23.871 v -45.884 c 0,-9.145 -3.1,-12.557 -11.625,-12.557 -3.255,0 -6.2,0.311 -11.007,1.706 v 56.734 H 232.969 V 74.505 z"
           id="path15"
           inkscape:connector-curvature="0"
           style="fill:#ffffff" />
        <path
           d="m 312.623,159.761 c 8.372,4.339 16.742,6.354 25.577,6.354 15.655,0 22.321,-6.354 22.321,-21.546 0,-0.154 0,-0.31 0,-0.467 -4.65,2.326 -9.301,3.257 -15.5,3.257 -20.927,0 -34.26,-13.797 -34.26,-35.652 0,-27.128 19.688,-42.473 54.564,-42.473 10.232,0 19.688,1.084 31.159,3.407 l -8.174,17.222 c -6.356,-1.241 -0.509,-0.167 -5.312,-0.632 v 2.48 l 0.309,10.074 0.154,13.022 c 0.155,3.253 0.155,6.51 0.311,9.764 0,2.945 0,4.342 0,6.512 0,20.462 -1.705,30.073 -6.82,37.977 -7.441,11.627 -20.307,17.362 -38.598,17.362 -9.301,0 -17.36,-1.396 -25.732,-4.651 v -22.01 z m 47.434,-71.306 c -0.31,0 -0.619,0 -0.774,0 h -1.706 c -4.649,-0.155 -10.074,1.084 -13.796,3.409 -5.734,3.257 -8.681,9.146 -8.681,17.518 0,11.937 5.892,18.756 16.432,18.756 3.255,0 5.891,-0.62 8.99,-1.55 v -1.705 -6.51 c 0,-2.79 -0.154,-5.892 -0.154,-9.146 l -0.154,-11.006 -0.156,-7.905 v -1.861 z"
           id="path17"
           inkscape:connector-curvature="0"
           style="fill:#ffffff" />
        <path
           d="m 433.543,68.77 c 23.871,0 38.443,15.037 38.443,39.371 0,24.957 -15.19,40.613 -39.373,40.613 -23.873,0 -38.599,-15.036 -38.599,-39.216 10e-4,-25.114 15.193,-40.768 39.529,-40.768 z m -0.467,60.763 c 9.147,0 14.573,-7.596 14.573,-20.773 0,-13.019 -5.271,-20.771 -14.415,-20.771 -9.457,0 -14.884,7.598 -14.884,20.771 10e-4,13.178 5.427,20.773 14.726,20.773 z"
           id="path19"
           inkscape:connector-curvature="0"
           style="fill:#ffffff" />
      </g>
    </g>
  </g>
  <g
     inkscape:groupmode="layer"
     id="layer3"
     inkscape:label="PLACE YOUR PICTOGRAM HERE"
     style="display:inline" />
  <g
     inkscape:groupmode="layer"
     id="layer2"
     inkscape:label="BADGE"
     style="display:none"
     sodipodi:insensitive="true">
    <g
       style="display:inline"
       transform="translate(-340.00001,-581)"
       id="g4394"
       clip-path="none">
      <g
         id="g855">
        <g
           inkscape:groupmode="maskhelper"
           id="g870"
           clip-path="url(#clipPath873)"
           style="opacity:0.6;filter:url(#filter891)">
          <path
             transform="matrix(1.4999992,0,0,1.4999992,-29.999795,-237.54282)"
             d="m 264,552.36218 c 0,6.62742 -5.37258,12 -12,12 -6.62742,0 -12,-5.37258 -12,-12 0,-6.62741 5.37258,-12 12,-12 6.62742,0 12,5.37259 12,12 z"
             sodipodi:ry="12"
             sodipodi:rx="12"
             sodipodi:cy="552.36218"
             sodipodi:cx="252"
             id="path844"
             style="color:#000000;fill:#000000;fill-opacity:1;fill-rule:nonzero;stroke:none;stroke-width:4;marker:none;visibility:visible;display:inline;overflow:visible;enable-background:accumulate"
             sodipodi:type="arc" />
        </g>
        <g
           id="g862">
          <path
             sodipodi:type="arc"
             style="color:#000000;fill:#f5f5f5;fill-opacity:1;fill-rule:nonzero;stroke:none;stroke-width:4;marker:none;visibility:visible;display:inline;overflow:visible;enable-background:accumulate"
             id="path4398"
             sodipodi:cx="252"
             sodipodi:cy="552.36218"
             sodipodi:rx="12"
             sodipodi:ry="12"
             d="m 264,552.36218 c 0,6.62742 -5.37258,12 -12,12 -6.62742,0 -12,-5.37258 -12,-12 0,-6.62741 5.37258,-12 12,-12 6.62742,0 12,5.37259 12,12 z"
             transform="matrix(1.4999992,0,0,1.4999992,-29.999795,-238.54282)" />
          <path
             transform="matrix(1.25,0,0,1.25,33,-100.45273)"
             d="m 264,552.36218 c 0,6.62742 -5.37258,12 -12,12 -6.62742,0 -12,-5.37258 -12,-12 0,-6.62741 5.37258,-12 12,-12 6.62742,0 12,5.37259 12,12 z"
             sodipodi:ry="12"
             sodipodi:rx="12"
             sodipodi:cy="552.36218"
             sodipodi:cx="252"
             id="path4400"
             style="color:#000000;fill:#dd4814;fill-opacity:1;fill-rule:nonzero;stroke:none;stroke-width:4;marker:none;visibility:visible;display:inline;overflow:visible;enable-background:accumulate"
             sodipodi:type="arc" />
          <path
             sodipodi:type="star"
             style="color:#000000;fill:#f5f5f5;fill-opacity:1;fill-rule:nonzero;stroke:none;stroke-width:3;marker:none;visibility:visible;display:inline;overflow:visible;enable-background:accumulate"
             id="path4459"
             sodipodi:sides="5"
             sodipodi:cx="666.19574"
             sodipodi:cy="589.50385"
             sodipodi:r1="7.2431178"
             sodipodi:r2="4.3458705"
             sodipodi:arg1="1.0471976"
             sodipodi:arg2="1.6755161"
             inkscape:flatsided="false"
             inkscape:rounded="0.1"
             inkscape:randomized="0"
             d="m 669.8173,595.77657 c -0.39132,0.22593 -3.62645,-1.90343 -4.07583,-1.95066 -0.44938,-0.0472 -4.05653,1.36297 -4.39232,1.06062 -0.3358,-0.30235 0.68963,-4.03715 0.59569,-4.47913 -0.0939,-0.44198 -2.5498,-3.43681 -2.36602,-3.8496 0.18379,-0.41279 4.05267,-0.59166 4.44398,-0.81759 0.39132,-0.22593 2.48067,-3.48704 2.93005,-3.4398 0.44938,0.0472 1.81505,3.67147 2.15084,3.97382 0.3358,0.30236 4.08294,1.2817 4.17689,1.72369 0.0939,0.44198 -2.9309,2.86076 -3.11469,3.27355 -0.18379,0.41279 0.0427,4.27917 -0.34859,4.5051 z"
             transform="matrix(1.511423,-0.16366377,0.16366377,1.511423,-755.37346,-191.93651)" />
        </g>
      </g>
    </g>
  </g>
</svg>
